<svg height="512pt" viewBox="-2 0 512 512" width="512pt" xmlns="http://www.w3.org/2000/svg"><path d="m373.21875 293.199219c0-16.015625-13.027344-29.042969-29.042969-29.042969-16.019531 0-29.046875 13.027344-29.046875 29.042969s13.027344 29.042969 29.046875 29.042969c16.015625 0 29.042969-13.027344 29.042969-29.042969zm-43.089844 0c0-7.746094 6.300782-14.042969 14.046875-14.042969 7.742188 0 14.042969 6.296875 14.042969 14.042969 0 7.742187-6.300781 14.042969-14.042969 14.042969-7.746093 0-14.046875-6.300782-14.046875-14.042969zm0 0"/><path d="m477.542969 3.558594h-27.636719c-3.363281-2.246094-7.398438-3.558594-11.738281-3.558594h-101.8125c-4.335938 0-8.371094 1.3125-11.738281 3.558594h-288.050782c-11.980468 0-21.726562 9.746094-21.726562 21.722656v7.320312h-1.183594c-4.140625 0-7.5 3.355469-7.5 7.5 0 4.140626 3.359375 7.5 7.5 7.5h1.1875v6.128907c0 9.351562 5.933594 17.339843 14.234375 20.394531v135.9375l-18.976563 17.347656c-.113281.101563-.226562.210938-.332031.320313-13.070312 13.511719-13.019531 34.628906.117188 48.078125 5.242187 5.371094 11.921875 8.800781 19.191406 9.953125v163.785156c0 34.4375 28.015625 62.453125 62.453125 62.453125h144.890625c4.140625 0 7.5-3.355469 7.5-7.5s-3.359375-7.5-7.5-7.5h-144.890625c-26.164062 0-47.453125-21.289062-47.453125-47.453125v-164.683594c5.628906-1.601562 10.773437-4.625 14.980469-8.886719l172.777344-172.285156c24.398437 18.734375 61.003906 5.167969 65.988281-26.242187.179687-1.136719 1.25-1.992188 2.492187-1.992188h14.8125v149.863281c0 23.582032 26.652344 38.390626 46.316406 23.8125 7.410157-5.496093 11.773438-14.183593 11.773438-23.316406v-37.101562c0-7.429688 5.554688-13.785156 12.644531-14.472656 8.535157-.8125 15.441407 5.984374 15.441407 13.972656 0 2.097656-.011719 2.75.035156 3.75.6875 14.453125 11.933594 26.617187 26.167968 28 16.941407 1.652344 31.886719-11.71875 31.886719-28.90625v-115.601563h10.636719v168.550781c0 4.140626 3.359375 7.5 7.5 7.5 4.144531 0 7.5-3.359374 7.5-7.5v-169.882812c8.300781-3.058594 14.238281-11.046875 14.238281-20.394531v-6.128907h1.003907c4.140624 0 7.5-3.359374 7.5-7.5 0-4.144531-3.359376-7.5-7.5-7.5h-1.003907v-7.320312c0-11.976562-9.746093-21.722656-21.726562-21.722656zm-448.464844 266.847656c-3.175781-.925781-6.082031-2.644531-8.460937-5.082031-7.375-7.546875-7.453126-19.371094-.210938-27.011719l8.671875-7.929688zm19.347656-5.011719c-1.304687 1.324219-2.773437 2.425781-4.347656 3.3125v-193.25h169.71875c1.230469 0 2.308594.84375 2.488281 1.980469.871094 5.5 2.789063 10.585938 5.519532 15.074219zm266.703125-204.9375h-14.8125c-8.679687 0-15.960937 6.15625-17.304687 14.640625-2.957031 18.632813-24.152344 28.371094-40.304688 17.757813l19.644531-19.585938c2.933594-2.925781 2.9375-7.675781.015626-10.609375-2.925782-2.929687-7.671876-2.9375-10.605469-.011718l-18.792969 18.738281c-.871094-1.980469-1.515625-4.085938-1.867188-6.292969-1.339843-8.480469-8.617187-14.636719-17.304687-14.636719h-177.230469c-3.707031 0-6.726562-3.015625-6.726562-6.726562v-6.128907h285.289062zm0-39.226562v11.371093h-285.285156v-7.320312c0-3.707031 3.015625-6.722656 6.722656-6.722656h278.734375c-.074219.5625-.171875 1.800781-.171875 2.671875zm129.265625 169.828125c0 7.976562-6.898437 14.792968-15.4375 13.976562-7.09375-.6875-12.648437-7.046875-12.648437-14.472656 0-21.945312-16.5625-32.742188-31.890625-31.25-14.9375 1.449219-26.199219 14.089844-26.199219 29.402344v37.101562c0 7.988282-6.902344 14.785156-15.441406 13.976563-7.089844-.6875-12.648438-7.046875-12.648438-14.472657 0-1.9375 0-201.484374 0-204.089843 0-3.433594 2.816406-6.230469 6.230469-6.230469h101.808594c3.453125 0 6.230469 2.84375 6.230469 6.230469-.003907 4.832031-.003907 167.980469-.003907 169.828125zm39.875-137.328125c0 3.707031-3.019531 6.726562-6.726562 6.726562h-18.148438v-12.855469h24.875zm0-21.128907h-24.875v-11.371093c0-.882813-.101562-2.144531-.171875-2.671875h18.320313c3.707031 0 6.726562 3.015625 6.726562 6.722656zm0 0"/><path d="m263.921875 504.5c0 4.144531 3.355469 7.5 7.5 7.5h151.15625c34.4375 0 62.453125-28.019531 62.453125-62.453125v-170.539063c0-4.144531-3.355469-7.5-7.5-7.5-4.140625 0-7.5 3.355469-7.5 7.5v170.539063c0 26.164063-21.285156 47.453125-47.453125 47.453125h-151.15625c-4.144531 0-7.5 3.355469-7.5 7.5zm0 0"/></svg>