<?xml version="1.0" encoding="iso-8859-1"?>
<!-- Generator: Adobe Illustrator 16.0.0, SVG Export Plug-In . SVG Version: 6.00 Build 0)  -->
<!DOCTYPE svg PUBLIC "-//W3C//DTD SVG 1.1//EN" "http://www.w3.org/Graphics/SVG/1.1/DTD/svg11.dtd">
<svg version="1.1" id="Capa_1" xmlns="http://www.w3.org/2000/svg" xmlns:xlink="http://www.w3.org/1999/xlink" x="0px" y="0px"
	 width="894.912px" height="894.912px" viewBox="0 0 894.912 894.912" style="enable-background:new 0 0 894.912 894.912;"
	 xml:space="preserve">
<g>
	<g>
		<path d="M447.457,0C200.73,0,0,200.727,0,447.456c0,246.727,200.73,447.456,447.457,447.456
			c246.727,0,447.456-200.729,447.456-447.456C894.912,200.727,694.182,0,447.457,0z M447.457,858.034
			c-226.394,0-410.58-184.187-410.58-410.578c0-226.393,184.186-410.579,410.58-410.579c226.393,0,410.577,184.186,410.577,410.579
			C858.033,673.849,673.848,858.034,447.457,858.034z"/>
		<path d="M503.123,150.328L361.307,315.009l-57.984,57.97l13.61,13.609c35.245,35.846,24.992,80.009,21.188,92.264
			c-60.33,59.64-87.825,65.373-91.07,65.87l-7.686-0.964l-6.375,6.375c-31.791,31.791-32.007,62.476-26.581,82.615
			c5.677,21.084,18.615,34.462,20.076,35.915c2.36,2.36,23.991,23.062,56.315,23.07c22.336,0,43.434-9.786,62.719-29.071
			l7.001-6.994l-1.612-7.938c0.698-4.317,7.318-31.23,67.044-91.366c3.851-1.937,15.154-6.864,30.122-6.864
			c21.048,0,41.291,9.549,60.158,28.387l0.08,0.075l13.045,13.044l57.979-57.971l164.678-141.823L503.123,150.328z M396.969,525.905
			l-1.777,1.107l-1.475,1.482c-60.064,60.062-75.976,94.626-79.099,112.644c-10.562,9.132-21.241,13.752-31.819,13.752
			c-17.335-0.008-30.251-12.27-30.267-12.275c-0.071-0.072-7.412-7.786-10.549-19.443c-3.856-14.341,0.324-28.271,12.787-42.44
			c17.104-3.411,52.3-18.709,112.385-78.795l2.67-2.67l1.41-3.512c0.619-1.555,8.044-20.708,8.074-46.79l63.81,63.809
			C416.736,513.997,399.006,524.632,396.969,525.905z M521.357,538.908l-165.922-165.93l29.802-29.81l165.962,165.955
			L521.357,538.908z M578.93,484.757L409.545,315.379l95.593-110.931l24.838,24.837l-79.426,88.509l27.424,24.603l78.09-87.026
			l23.957,23.957l-33.795,37.165l27.258,24.782l32.617-35.869l83.799,83.793L578.93,484.757z"/>
	</g>
</g>
<g>
</g>
<g>
</g>
<g>
</g>
<g>
</g>
<g>
</g>
<g>
</g>
<g>
</g>
<g>
</g>
<g>
</g>
<g>
</g>
<g>
</g>
<g>
</g>
<g>
</g>
<g>
</g>
<g>
</g>
</svg>
